<svg xmlns="http://www.w3.org/2000/svg" xmlns:xlink="http://www.w3.org/1999/xlink" viewBox="0 0 512 512" width="512" height="512" style="width: 100%; height: 100%; transform: translate3d(0px, 0px, 0px); content-visibility: visible;" preserveAspectRatio="xMidYMid meet"><defs><clipPath id="__lottie_element_2"><rect width="512" height="512" x="0" y="0"/></clipPath><linearGradient id="__lottie_element_8" spreadMethod="pad" gradientUnits="userSpaceOnUse" x1="-65.2979965209961" y1="30.986000061035156" x2="28.816999435424805" y2="61.64699935913086"><stop offset="0%" stop-color="rgb(197,166,226)" stop-opacity="0.699999988079071"/><stop offset="9%" stop-color="rgb(226,192,235)" stop-opacity="0.6499999761581421"/><stop offset="47%" stop-color="rgb(255,217,243)" stop-opacity="0.6000000238418579"/><stop offset="91%" stop-color="rgb(226,192,235)" stop-opacity="0.6499999761581421"/><stop offset="100%" stop-color="rgb(197,166,226)" stop-opacity="0.699999988079071"/></linearGradient><linearGradient id="__lottie_element_9" spreadMethod="pad" gradientUnits="userSpaceOnUse" x1="19.51300048828125" y1="-63.1510009765625" x2="-10.928000450134277" y2="54.808998107910156"><stop offset="0%" stop-color="rgb(255,255,255)" stop-opacity="0.699999988079071"/><stop offset="72%" stop-color="rgb(255,255,255)" stop-opacity="0.550000011920929"/><stop offset="100%" stop-color="rgb(255,255,255)" stop-opacity="0.4000000059604645"/></linearGradient><linearGradient id="__lottie_element_10" spreadMethod="pad" gradientUnits="userSpaceOnUse" x1="25.062000274658203" y1="29.207000732421875" x2="-1.9079999923706055" y2="-45.30400085449219"><stop offset="0%" stop-color="rgb(255,255,255)" stop-opacity="0.699999988079071"/><stop offset="72%" stop-color="rgb(255,255,255)" stop-opacity="0.550000011920929"/><stop offset="100%" stop-color="rgb(255,255,255)" stop-opacity="0.4000000059604645"/></linearGradient><linearGradient id="__lottie_element_11" spreadMethod="pad" gradientUnits="userSpaceOnUse" x1="-7.427999973297119" y1="17.70800018310547" x2="10.95199966430664" y2="-31.17099952697754"><stop offset="0%" stop-color="rgb(255,255,255)" stop-opacity="1"/><stop offset="72%" stop-color="rgb(255,255,255)" stop-opacity="0.699999988079071"/><stop offset="100%" stop-color="rgb(255,255,255)" stop-opacity="0.4000000059604645"/></linearGradient><linearGradient id="__lottie_element_12" spreadMethod="pad" gradientUnits="userSpaceOnUse" x1="1.2999999523162842" y1="7.505000114440918" x2="7.436999797821045" y2="-12.696000099182129"><stop offset="0%" stop-color="rgb(197,166,226)" stop-opacity="1"/><stop offset="46%" stop-color="rgb(197,166,226)" stop-opacity="0.5"/><stop offset="99%" stop-color="rgb(197,166,226)" stop-opacity="0"/></linearGradient><linearGradient id="__lottie_element_13" spreadMethod="pad" gradientUnits="userSpaceOnUse" x1="-3.2070000171661377" y1="-8.29699993133545" x2="-8.529999732971191" y2="10.748000144958496"><stop offset="0%" stop-color="rgb(197,166,226)" stop-opacity="1"/><stop offset="46%" stop-color="rgb(197,166,226)" stop-opacity="0.5"/><stop offset="99%" stop-color="rgb(197,166,226)" stop-opacity="0"/></linearGradient><linearGradient id="__lottie_element_14" spreadMethod="pad" gradientUnits="userSpaceOnUse" x1="1.7070000171661377" y1="9.72599983215332" x2="6.324999809265137" y2="-1.0329999923706055"><stop offset="0%" stop-color="rgb(197,166,226)" stop-opacity="1"/><stop offset="46%" stop-color="rgb(197,166,226)" stop-opacity="0.5"/><stop offset="99%" stop-color="rgb(197,166,226)" stop-opacity="0"/></linearGradient><linearGradient id="__lottie_element_15" spreadMethod="pad" gradientUnits="userSpaceOnUse" x1="5.658999919891357" y1="-8.866000175476074" x2="1.5429999828338623" y2="4.646999835968018"><stop offset="1%" stop-color="rgb(197,166,226)" stop-opacity="0.6000000238418579"/><stop offset="61%" stop-color="rgb(226,192,235)" stop-opacity="0.30000001192092896"/><stop offset="100%" stop-color="rgb(255,217,243)" stop-opacity="0"/></linearGradient><linearGradient id="__lottie_element_19" spreadMethod="pad" gradientUnits="userSpaceOnUse" x1="-0.9309999942779541" y1="-12.543999671936035" x2="-8.097999572753906" y2="19.729000091552734"><stop offset="0%" stop-color="rgb(249,78,156)" stop-opacity="0.699999988079071"/><stop offset="50%" stop-color="rgb(242,70,160)" stop-opacity="0.8500000238418579"/><stop offset="100%" stop-color="rgb(235,61,164)" stop-opacity="1"/></linearGradient><linearGradient id="__lottie_element_26" spreadMethod="pad" gradientUnits="userSpaceOnUse" x1="7.546999931335449" y1="-36.22999954223633" x2="-5.474999904632568" y2="39.83599853515625"><stop offset="0%" stop-color="rgb(255,255,255)" stop-opacity="1"/><stop offset="72%" stop-color="rgb(255,255,255)" stop-opacity="0.699999988079071"/><stop offset="100%" stop-color="rgb(255,255,255)" stop-opacity="0.4000000059604645"/></linearGradient><linearGradient id="__lottie_element_27" spreadMethod="pad" gradientUnits="userSpaceOnUse" x1="4.794000148773193" y1="-13.27299976348877" x2="-0.47200000286102295" y2="1.777999997138977"><stop offset="19%" stop-color="rgb(241,241,241)" stop-opacity="1"/><stop offset="50%" stop-color="rgb(241,241,241)" stop-opacity="0.800000011920929"/><stop offset="100%" stop-color="rgb(241,241,241)" stop-opacity="0.6000000238418579"/></linearGradient><linearGradient id="__lottie_element_32" spreadMethod="pad" gradientUnits="userSpaceOnUse" x1="-50.46099853515625" y1="10.237000465393066" x2="45.09400177001953" y2="-15.097000122070312"><stop offset="0%" stop-color="rgb(197,166,226)" stop-opacity="0.699999988079071"/><stop offset="9%" stop-color="rgb(226,192,235)" stop-opacity="0.6499999761581421"/><stop offset="47%" stop-color="rgb(255,217,243)" stop-opacity="0.6000000238418579"/><stop offset="91%" stop-color="rgb(226,192,235)" stop-opacity="0.6499999761581421"/><stop offset="100%" stop-color="rgb(197,166,226)" stop-opacity="0.699999988079071"/></linearGradient><linearGradient id="__lottie_element_33" spreadMethod="pad" gradientUnits="userSpaceOnUse" x1="40.04999923706055" y1="-38.22100067138672" x2="-26.878000259399414" y2="-119.48699951171875"><stop offset="0%" stop-color="rgb(255,255,255)" stop-opacity="0.699999988079071"/><stop offset="72%" stop-color="rgb(255,255,255)" stop-opacity="0.550000011920929"/><stop offset="100%" stop-color="rgb(255,255,255)" stop-opacity="0.4000000059604645"/></linearGradient><linearGradient id="__lottie_element_34" spreadMethod="pad" gradientUnits="userSpaceOnUse" x1="-19.10300064086914" y1="-63.70199966430664" x2="2.640000104904175" y2="44.50600051879883"><stop offset="0%" stop-color="rgb(255,255,255)" stop-opacity="0.699999988079071"/><stop offset="72%" stop-color="rgb(255,255,255)" stop-opacity="0.550000011920929"/><stop offset="100%" stop-color="rgb(255,255,255)" stop-opacity="0.4000000059604645"/></linearGradient><linearGradient id="__lottie_element_35" spreadMethod="pad" gradientUnits="userSpaceOnUse" x1="36.0369987487793" y1="-19.993000030517578" x2="-39.220001220703125" y2="-85.99800109863281"><stop offset="0%" stop-color="rgb(255,255,255)" stop-opacity="1"/><stop offset="72%" stop-color="rgb(255,255,255)" stop-opacity="0.699999988079071"/><stop offset="100%" stop-color="rgb(255,255,255)" stop-opacity="0.4000000059604645"/></linearGradient><linearGradient id="__lottie_element_36" spreadMethod="pad" gradientUnits="userSpaceOnUse" x1="0.19499999284744263" y1="7.860000133514404" x2="-6.374000072479248" y2="-13.494999885559082"><stop offset="0%" stop-color="rgb(197,166,226)" stop-opacity="1"/><stop offset="46%" stop-color="rgb(197,166,226)" stop-opacity="0.5"/><stop offset="99%" stop-color="rgb(197,166,226)" stop-opacity="0"/></linearGradient><linearGradient id="__lottie_element_37" spreadMethod="pad" gradientUnits="userSpaceOnUse" x1="-0.028999999165534973" y1="-10.866999626159668" x2="6.552999973297119" y2="14.6850004196167"><stop offset="0%" stop-color="rgb(197,166,226)" stop-opacity="1"/><stop offset="46%" stop-color="rgb(197,166,226)" stop-opacity="0.5"/><stop offset="99%" stop-color="rgb(197,166,226)" stop-opacity="0"/></linearGradient><linearGradient id="__lottie_element_38" spreadMethod="pad" gradientUnits="userSpaceOnUse" x1="-2.749000072479248" y1="-6.7729997634887695" x2="2.4140000343322754" y2="13.267000198364258"><stop offset="0%" stop-color="rgb(197,166,226)" stop-opacity="1"/><stop offset="46%" stop-color="rgb(197,166,226)" stop-opacity="0.5"/><stop offset="99%" stop-color="rgb(197,166,226)" stop-opacity="0"/></linearGradient><linearGradient id="__lottie_element_39" spreadMethod="pad" gradientUnits="userSpaceOnUse" x1="-2.8980000019073486" y1="-8.890999794006348" x2="1.7690000534057617" y2="8.442000389099121"><stop offset="1%" stop-color="rgb(197,166,226)" stop-opacity="0.6000000238418579"/><stop offset="61%" stop-color="rgb(226,192,235)" stop-opacity="0.30000001192092896"/><stop offset="100%" stop-color="rgb(255,217,243)" stop-opacity="0"/></linearGradient><linearGradient id="__lottie_element_43" spreadMethod="pad" gradientUnits="userSpaceOnUse" x1="-3.809000015258789" y1="-32.6619987487793" x2="11.854999542236328" y2="28.14299964904785"><stop offset="0%" stop-color="rgb(249,78,156)" stop-opacity="0.699999988079071"/><stop offset="50%" stop-color="rgb(242,70,160)" stop-opacity="0.8500000238418579"/><stop offset="100%" stop-color="rgb(235,61,164)" stop-opacity="1"/></linearGradient><linearGradient id="__lottie_element_50" spreadMethod="pad" gradientUnits="userSpaceOnUse" x1="-10.253000259399414" y1="-38.96900177001953" x2="13.913000106811523" y2="61.3650016784668"><stop offset="0%" stop-color="rgb(255,255,255)" stop-opacity="1"/><stop offset="72%" stop-color="rgb(255,255,255)" stop-opacity="0.699999988079071"/><stop offset="100%" stop-color="rgb(255,255,255)" stop-opacity="0.4000000059604645"/></linearGradient><linearGradient id="__lottie_element_51" spreadMethod="pad" gradientUnits="userSpaceOnUse" x1="-22.80500030517578" y1="-92.65499877929688" x2="1.3619999885559082" y2="7.677999973297119"><stop offset="19%" stop-color="rgb(241,241,241)" stop-opacity="1"/><stop offset="50%" stop-color="rgb(241,241,241)" stop-opacity="0.800000011920929"/><stop offset="100%" stop-color="rgb(241,241,241)" stop-opacity="0.6000000238418579"/></linearGradient><linearGradient id="__lottie_element_55" spreadMethod="pad" gradientUnits="userSpaceOnUse" x1="0.5860000252723694" y1="-18.246999740600586" x2="7.876999855041504" y2="34.65599822998047"><stop offset="19%" stop-color="rgb(255,62,125)"/><stop offset="33%" stop-color="rgb(227,40,114)"/><stop offset="55%" stop-color="rgb(200,17,103)"/><stop offset="70%" stop-color="rgb(227,49,128)"/><stop offset="88%" stop-color="rgb(255,82,152)"/></linearGradient><linearGradient id="__lottie_element_56" spreadMethod="pad" gradientUnits="userSpaceOnUse" x1="-0.6959999799728394" y1="-5.020999908447266" x2="0.8970000147819519" y2="10.187999725341797"><stop offset="0%" stop-color="rgb(255,255,255)" stop-opacity="0.699999988079071"/><stop offset="64%" stop-color="rgb(255,153,198)" stop-opacity="0.3499999940395355"/><stop offset="100%" stop-color="rgb(255,51,141)" stop-opacity="0"/></linearGradient><linearGradient id="__lottie_element_60" spreadMethod="pad" gradientUnits="userSpaceOnUse" x1="0.5860000252723694" y1="-18.246999740600586" x2="7.876999855041504" y2="34.65599822998047"><stop offset="19%" stop-color="rgb(255,62,125)"/><stop offset="33%" stop-color="rgb(227,40,114)"/><stop offset="55%" stop-color="rgb(200,17,103)"/><stop offset="70%" stop-color="rgb(227,49,128)"/><stop offset="88%" stop-color="rgb(255,82,152)"/></linearGradient><linearGradient id="__lottie_element_61" spreadMethod="pad" gradientUnits="userSpaceOnUse" x1="-0.6959999799728394" y1="-5.020999908447266" x2="0.8970000147819519" y2="10.187999725341797"><stop offset="0%" stop-color="rgb(255,255,255)" stop-opacity="0.699999988079071"/><stop offset="64%" stop-color="rgb(255,153,198)" stop-opacity="0.3499999940395355"/><stop offset="100%" stop-color="rgb(255,51,141)" stop-opacity="0"/></linearGradient><linearGradient id="__lottie_element_83" spreadMethod="pad" gradientUnits="userSpaceOnUse" x1="0.5860000252723694" y1="-18.246999740600586" x2="7.876999855041504" y2="34.65599822998047"><stop offset="19%" stop-color="rgb(255,62,125)"/><stop offset="33%" stop-color="rgb(227,40,114)"/><stop offset="55%" stop-color="rgb(200,17,103)"/><stop offset="70%" stop-color="rgb(227,49,128)"/><stop offset="88%" stop-color="rgb(255,82,152)"/></linearGradient><linearGradient id="__lottie_element_84" spreadMethod="pad" gradientUnits="userSpaceOnUse" x1="-0.6959999799728394" y1="-5.020999908447266" x2="0.8970000147819519" y2="10.187999725341797"><stop offset="0%" stop-color="rgb(255,255,255)" stop-opacity="0.699999988079071"/><stop offset="64%" stop-color="rgb(255,153,198)" stop-opacity="0.3499999940395355"/><stop offset="100%" stop-color="rgb(255,51,141)" stop-opacity="0"/></linearGradient><linearGradient id="__lottie_element_100" spreadMethod="pad" gradientUnits="userSpaceOnUse" x1="0.5860000252723694" y1="-18.246999740600586" x2="7.876999855041504" y2="34.65599822998047"><stop offset="19%" stop-color="rgb(255,62,125)"/><stop offset="33%" stop-color="rgb(227,40,114)"/><stop offset="55%" stop-color="rgb(200,17,103)"/><stop offset="70%" stop-color="rgb(227,49,128)"/><stop offset="88%" stop-color="rgb(255,82,152)"/></linearGradient><linearGradient id="__lottie_element_101" spreadMethod="pad" gradientUnits="userSpaceOnUse" x1="-0.6959999799728394" y1="-5.020999908447266" x2="0.8970000147819519" y2="10.187999725341797"><stop offset="0%" stop-color="rgb(255,255,255)" stop-opacity="0.699999988079071"/><stop offset="64%" stop-color="rgb(255,153,198)" stop-opacity="0.3499999940395355"/><stop offset="100%" stop-color="rgb(255,51,141)" stop-opacity="0"/></linearGradient></defs><g clip-path="url(#__lottie_element_2)"><g style="display: block;" transform="matrix(1.25,0,0,1.25,-61.999752044677734,-58.00022888183594)" opacity="1"><g opacity="1" transform="matrix(1,0,0,1,166.66600036621094,301.4219970703125)"><path fill="url(#__lottie_element_8)" fill-opacity="1" d=" M80.61900329589844,-122.04199981689453 C84.99800109863281,-101.55999755859375 90.47799682617188,-32.04600143432617 62.05799865722656,-6.461999893188477 C31.79599952697754,20.77899932861328 8.255999565124512,8.510000228881836 3.25600004196167,25.177000045776367 C-1.74399995803833,41.84400177001953 -18.40999984741211,101.84400177001953 -18.40999984741211,101.84400177001953 C-18.40999984741211,101.84400177001953 -21.743999481201172,110.927001953125 -12.494000434875488,115.677001953125 C-4.401000022888184,119.83300018310547 25.59000015258789,134.6219940185547 17.59000015258789,143.843994140625 C5.2270002365112305,158.0959930419922 -81.01200103759766,131.6739959716797 -84.0770034790039,114.51000213623047 C-86.29900360107422,102.06600189208984 -47.61600112915039,108.80999755859375 -37.82699966430664,107.26000213623047 C-31.687999725341797,106.28800201416016 -29.993999481201172,98.51000213623047 -29.993999481201172,98.51000213623047 C-29.993999481201172,98.51000213623047 -14.15999984741211,38.59400177001953 -9.15999984741211,21.927000045776367 C-4.159999847412109,5.260000228881836 -34.275001525878906,-5.841000080108643 -44.632999420166016,-37.37900161743164 C-53.48500061035156,-64.33200073242188 -32.74399948120117,-113.48999786376953 -4.664000034332275,-143.0279998779297 C7.701000213623047,-156.5449981689453 76.58999633789062,-139.54600524902344 80.61900329589844,-122.04199981689453z"/></g><g opacity="1" transform="matrix(1,0,0,1,141.16400146484375,240.35800170898438)"><path fill="url(#__lottie_element_9)" fill-opacity="1" d=" M21.23699951171875,-70.95999908447266 C21.23699951171875,-70.95999908447266 -19.047000885009766,-17.18600082397461 -9.869000434875488,20.492000579833984 C0.00800000037997961,61.03799819946289 19.56800079345703,64.14700317382812 16.88800048828125,79.67400360107422 C14.925000190734863,57.99100112915039 -26.825000762939453,45.492000579833984 -20.606000900268555,0.27000001072883606 C-13.770000457763672,-49.4379997253418 18.711999893188477,-79.67400360107422 18.711999893188477,-79.67400360107422 C18.711999893188477,-79.67400360107422 21.23699951171875,-70.95999908447266 21.23699951171875,-70.95999908447266z"/></g><g opacity="1" transform="matrix(1,0,0,1,212.02499389648438,250.36099243164062)"><path fill="url(#__lottie_element_10)" fill-opacity="1" d=" M27.898000717163086,-64.01499938964844 C27.898000717163086,-64.01499938964844 36.459999084472656,2.246999979019165 12.789999961853027,32.96500015258789 C-10.880000114440918,63.68299865722656 -34.10900115966797,56.05500030517578 -39.1609992980957,70.9800033569336 C-25.101999282836914,58.737998962402344 17.231000900268555,64.5719985961914 30.584999084472656,23.35700035095215 C46.612998962402344,-26.113000869750977 35.2599983215332,-70.9800033569336 35.2599983215332,-70.9800033569336 C35.2599983215332,-70.9800033569336 27.898000717163086,-64.01499938964844 27.898000717163086,-64.01499938964844z"/></g><g opacity="0.6" transform="matrix(1,0,0,1,175.20799255371094,191.77000427246094)"><path fill="url(#__lottie_element_11)" fill-opacity="1" d=" M8.555000305175781,-38.1619987487793 C8.555000305175781,-38.1619987487793 14.937000274658203,-37.672000885009766 22.12299919128418,-36.676998138427734 C22.12299919128418,-36.676998138427734 0,-10.72700023651123 -8.541999816894531,38.1619987487793 C-8.541999816894531,38.1619987487793 -22.12299919128418,34.07600021362305 -22.12299919128418,34.07600021362305 C-22.12299919128418,34.07600021362305 -18.349000930786133,-0.8180000185966492 8.555000305175781,-38.1619987487793z"/></g><g opacity="1" transform="matrix(1,0,0,1,138.38600158691406,403.52301025390625)"><path fill="url(#__lottie_element_12)" fill-opacity="1" d=" M-16.902000427246094,6.985000133514404 C-16.902000427246094,6.985000133514404 0.23499999940395355,5.485000133514404 16.902000427246094,16.57699966430664 C16.902000427246094,16.57699966430664 8.309000015258789,10.760000228881836 9.666000366210938,1.031000018119812 C10.25100040435791,-3.1610000133514404 13.626999855041504,-13.07800006866455 13.626999855041504,-13.07800006866455 C13.626999855041504,-13.07800006866455 1.399999976158142,-16.57699966430664 1.399999976158142,-16.57699966430664 C1.399999976158142,-16.57699966430664 -2.378999948501587,-1.5440000295639038 -2.378999948501587,-1.5440000295639038 C-2.378999948501587,-1.5440000295639038 -5.190000057220459,6.617000102996826 -16.902000427246094,6.985000133514404z"/></g><g opacity="1" transform="matrix(1,0,0,1,169.09800720214844,323.5260009765625)"><path fill="url(#__lottie_element_13)" fill-opacity="1" d=" M16.759000778198242,-7.85099983215332 C16.759000778198242,-7.85099983215332 -5.508999824523926,-4.426000118255615 -16.759000778198242,-16.57699966430664 C-16.759000778198242,-16.57699966430664 -10.008999824523926,-10.760000228881836 -11.366000175476074,-1.031000018119812 C-11.951000213623047,3.1610000133514404 -15.32699966430664,13.07800006866455 -15.32699966430664,13.07800006866455 C-15.32699966430664,13.07800006866455 -3.1010000705718994,16.57699966430664 -3.1010000705718994,16.57699966430664 C-3.1010000705718994,16.57699966430664 1.906000018119812,0.4059999883174896 1.906000018119812,0.4059999883174896 C1.906000018119812,0.4059999883174896 5.046999931335449,-7.482999801635742 16.759000778198242,-7.85099983215332z"/></g><g opacity="1" transform="matrix(1,0,0,1,134.3780059814453,429.4320068359375)"><path fill="url(#__lottie_element_14)" fill-opacity="1" d=" M47.60200119018555,5.5370001792907715 C47.60200119018555,5.5370001792907715 44.76599884033203,17.19700050354004 -2.122999906539917,3.5 C-46.54899978637695,-9.47700023651123 -43.79499816894531,-20.42300033569336 -43.79499816894531,-20.42300033569336 C-43.79499816894531,-20.42300033569336 -78.0469970703125,-6.251999855041504 -4.191999912261963,13.020999908447266 C73.43299865722656,33.27799987792969 47.60200119018555,5.5370001792907715 47.60200119018555,5.5370001792907715z"/></g><g opacity="1" transform="matrix(1,0,0,1,166.66600036621094,301.4219970703125)"><path stroke-linecap="round" stroke-linejoin="round" fill-opacity="0" stroke="rgb(186,26,106)" stroke-opacity="1" stroke-width="6" d=" M80.61900329589844,-122.04199981689453 C84.99800109863281,-101.55999755859375 90.47799682617188,-32.04600143432617 62.05799865722656,-6.461999893188477 C31.79599952697754,20.77899932861328 8.255999565124512,8.510000228881836 3.25600004196167,25.177000045776367 C-1.74399995803833,41.84400177001953 -18.40999984741211,101.84400177001953 -18.40999984741211,101.84400177001953 C-18.40999984741211,101.84400177001953 -21.743999481201172,110.927001953125 -12.494000434875488,115.677001953125 C-4.401000022888184,119.83300018310547 25.59000015258789,134.6219940185547 17.59000015258789,143.843994140625 C5.2270002365112305,158.0959930419922 -81.01200103759766,131.6739959716797 -84.0770034790039,114.51000213623047 C-86.29900360107422,102.06600189208984 -47.61600112915039,108.80999755859375 -37.82699966430664,107.26000213623047 C-31.687999725341797,106.28800201416016 -29.993999481201172,98.51000213623047 -29.993999481201172,98.51000213623047 C-29.993999481201172,98.51000213623047 -14.15999984741211,38.59400177001953 -9.15999984741211,21.927000045776367 C-4.159999847412109,5.260000228881836 -34.275001525878906,-5.841000080108643 -44.632999420166016,-37.37900161743164 C-53.48500061035156,-64.33200073242188 -32.74399948120117,-113.48999786376953 -4.664000034332275,-143.0279998779297 C7.701000213623047,-156.5449981689453 76.58999633789062,-139.54600524902344 80.61900329589844,-122.04199981689453z"/></g><g opacity="1" transform="matrix(1,0,0,1,203.70700073242188,175.97799682617188)"><path fill="rgb(255,255,255)" fill-opacity="1" d=" M43.577999114990234,3.4019999504089355 C43.577999114990234,3.4019999504089355 46.15599822998047,16.65999984741211 -2.759000062942505,7.918000221252441 C-51.67399978637695,-0.8240000009536743 -41.70600128173828,-17.583999633789062 -41.70600128173828,-17.583999633789062 C-41.70600128173828,-17.583999633789062 -57.21500015258789,1.7480000257492065 -4.452000141143799,13.843000411987305 C50.220001220703125,26.375999450683594 43.577999114990234,3.4019999504089355 43.577999114990234,3.4019999504089355z"/></g><g opacity="1" transform="matrix(1,0,0,1,204.22900390625,170.5500030517578)"><path fill="url(#__lottie_element_15)" fill-opacity="1" d=" M-42.98099899291992,-10.567000389099121 C-44.792999267578125,-3.196000099182129 -27.018999099731445,7.510000228881836 -3.2809998989105225,13.345999717712402 C20.457000732421875,19.18199920654297 41.16899871826172,17.937999725341797 42.98099899291992,10.567000389099121 C44.792999267578125,3.196000099182129 27.018999099731445,-7.510000228881836 3.2809998989105225,-13.345999717712402 C-20.457000732421875,-19.18199920654297 -41.16899871826172,-17.937999725341797 -42.98099899291992,-10.567000389099121z"/></g><g opacity="1" transform="matrix(1,0,0,1,204.22900390625,170.5500030517578)"><path stroke-linecap="round" stroke-linejoin="round" fill-opacity="0" stroke="rgb(214,37,117)" stroke-opacity="1" stroke-width="6" d=" M-42.98099899291992,-10.567000389099121 C-44.792999267578125,-3.196000099182129 -27.018999099731445,7.510000228881836 -3.2809998989105225,13.345999717712402 C20.457000732421875,19.18199920654297 41.16899871826172,17.937999725341797 42.98099899291992,10.567000389099121 C44.792999267578125,3.196000099182129 27.018999099731445,-7.510000228881836 3.2809998989105225,-13.345999717712402 C-20.457000732421875,-19.18199920654297 -41.16899871826172,-17.937999725341797 -42.98099899291992,-10.567000389099121z"/></g><g opacity="1" transform="matrix(1,0,0,1,144.46099853515625,432.8210144042969)"><path fill="rgb(255,255,255)" fill-opacity="1" d=" M24.31399917602539,6.947000026702881 C15.96399974822998,11.175999641418457 -12.505999565124512,3.8469998836517334 -21.80900001525879,-2.197000026702881 C-29.107999801635742,-6.939000129699707 -25.040000915527344,-9.946999549865723 -18.3799991607666,-7.085000038146973 C-8.16100025177002,-2.694999933242798 4.645999908447266,1.972000002861023 18.128000259399414,2.055999994277954 C25.204999923706055,2.0999999046325684 27.424999237060547,5.370999813079834 24.31399917602539,6.947000026702881z"/></g></g><g style="display: block;" transform="matrix(1.25,0,0,1.25,-61.999752044677734,-58.00022888183594)" opacity="1"><g opacity="1" transform="matrix(1,0,0,1,184.88699340820312,265.9049987792969)"><path fill="rgb(255,174,215)" fill-opacity="1" d=" M-50.85300064086914,-35.4900016784668 C-64.4010009765625,7.443999767303467 -25.29800033569336,44.13800048828125 14.258000373840332,33.694000244140625 C53.81399917602539,23.25 53.590999603271484,-21.86199951171875 53.590999603271484,-21.86199951171875 C53.590999603271484,-21.86199951171875 50.8849983215332,-9.071999549865723 -0.7170000076293945,-15.008999824523926 C-45.77899932861328,-20.194000244140625 -50.85300064086914,-35.4900016784668 -50.85300064086914,-35.4900016784668z"/></g><g opacity="1" transform="matrix(1,0,0,1,185.3179931640625,261.3210144042969)"><path fill="url(#__lottie_element_19)" fill-opacity="1" d=" M-51.28499984741211,-30.905000686645508 C-61.895999908447266,0.10400000214576721 -25.729999542236328,38.66899871826172 13.826000213623047,29.542999267578125 C53.38199996948242,20.41699981689453 53.159000396728516,-18.99799919128418 53.159000396728516,-18.99799919128418 C53.159000396728516,-18.99799919128418 54.111000061035156,-2.174999952316284 -1.3380000591278076,-10.163999557495117 C-46.75,-16.707000732421875 -51.28499984741211,-30.905000686645508 -51.28499984741211,-30.905000686645508z"/></g><g opacity="1" transform="matrix(1,0,0,1,184.88699340820312,265.9049987792969)"><path stroke-linecap="round" stroke-linejoin="round" fill-opacity="0" stroke="rgb(216,39,132)" stroke-opacity="1" stroke-width="6" d=" M53.590999603271484,-21.86199951171875 C53.590999603271484,-21.86199951171875 53.81399917602539,23.25 14.258000373840332,33.694000244140625 C-25.29800033569336,44.13800048828125 -64.4010009765625,7.443999767303467 -50.85300064086914,-35.4900016784668"/></g></g><g style="display: block;" transform="matrix(1.25,0,0,1.25,-61.999752044677734,-58.00022888183594)" opacity="1"><g opacity="1" transform="matrix(1,0,0,1,186.25399780273438,237.56300354003906)"><path fill="rgb(255,148,197)" fill-opacity="1" d=" M-52.191001892089844,-7.357999801635742 C-53.250999450683594,0.15800000727176666 -30.743000030517578,9.545000076293945 -1.9190000295639038,13.609000205993652 C26.905000686645508,17.67300033569336 51.13100051879883,14.87399959564209 52.191001892089844,7.357999801635742 C53.250999450683594,-0.15800000727176666 30.743000030517578,-9.545000076293945 1.9190000295639038,-13.609000205993652 C-26.905000686645508,-17.67300033569336 -51.13100051879883,-14.87399959564209 -52.191001892089844,-7.357999801635742z"/></g><g opacity="1" transform="matrix(1,0,0,1,185.99099731445312,234.09500122070312)"><path fill="rgb(255,215,237)" fill-opacity="1" d=" M51.902000427246094,12.319000244140625 C51.902000427246094,12.319000244140625 30.93199920654297,0.9210000038146973 -2.568000078201294,-3.1619999408721924 C-23.40399932861328,-5.702000141143799 -45.948001861572266,-3.7090001106262207 -50.922000885009766,-0.4819999933242798 C-50.922000885009766,-0.4819999933242798 -63.23500061035156,-17.746000289916992 -1.1039999723434448,-10.576000213623047 C45.32899856567383,-5.2179999351501465 52.24800109863281,5.190000057220459 51.902000427246094,12.319000244140625z"/></g><g opacity="1" transform="matrix(1,0,0,1,186.25399780273438,237.56300354003906)"><path stroke-linecap="round" stroke-linejoin="round" fill-opacity="0" stroke="rgb(216,39,132)" stroke-opacity="1" stroke-width="6" d=" M-52.191001892089844,-7.357999801635742 C-53.250999450683594,0.15800000727176666 -30.743000030517578,9.545000076293945 -1.9190000295639038,13.609000205993652 C26.905000686645508,17.67300033569336 51.13100051879883,14.87399959564209 52.191001892089844,7.357999801635742 C53.250999450683594,-0.15800000727176666 30.743000030517578,-9.545000076293945 1.9190000295639038,-13.609000205993652 C-26.905000686645508,-17.67300033569336 -51.13100051879883,-14.87399959564209 -52.191001892089844,-7.357999801635742z"/></g></g><g style="display: none;" transform="matrix(1.5995043516159058,-0.5378121137619019,0.3983793258666992,1.1848180294036865,-204.68798828125,105.70609283447266)" opacity="1"><g opacity="1" transform="matrix(1,0,0,1,186.25399780273438,237.56300354003906)"><path fill="rgb(255,148,197)" fill-opacity="1" d=" M9.835000038146973,-43.24399948120117 C7.798999786376953,-44.250999450683594 10.156000137329102,-40.57899856567383 12.390000343322754,-38.59700012207031 C14.666000366210938,-36.577999114990234 19.868999481201172,-32.15700149536133 23.003999710083008,-31.406999588012695 C24.516000747680664,-31.045000076293945 20.871999740600586,-35.33399963378906 18.601999282836914,-37.34700012207031 C16.277999877929688,-39.40800094604492 13.57699966430664,-41.39400100708008 9.835000038146973,-43.24399948120117z"/></g><g opacity="1" transform="matrix(1,0,0,1,185.99099731445312,234.09500122070312)"><path fill="rgb(255,215,237)" fill-opacity="1" d=" M23.006000518798828,-28.06100082397461 C22.632999420166016,-27.926000595092773 18.663000106811523,-32.428001403808594 17.2810001373291,-33.66899871826172 C15.38700008392334,-35.369998931884766 10.149999618530273,-39.21699905395508 10.232999801635742,-39.64799880981445 C13.076000213623047,-38.42399978637695 16.775999069213867,-35.69200134277344 18.868000030517578,-33.79999923706055 C21.166000366210938,-31.722000122070312 25.143999099731445,-27.400999069213867 23.006000518798828,-28.06100082397461z"/></g><g opacity="1" transform="matrix(1,0,0,1,186.25399780273438,237.56300354003906)"><path stroke-linecap="round" stroke-linejoin="round" fill-opacity="0" stroke="rgb(216,39,132)" stroke-opacity="1" stroke-width="6" d=" M9.835000038146973,-43.24399948120117 C7.790999889373779,-44.26100158691406 10.156000137329102,-40.57899856567383 12.390000343322754,-38.59700012207031 C14.666000366210938,-36.577999114990234 19.868999481201172,-32.15700149536133 23.003999710083008,-31.406999588012695 C24.516000747680664,-31.045000076293945 20.871999740600586,-35.33399963378906 18.601999282836914,-37.34700012207031 C16.277999877929688,-39.40800094604492 14.003999710083008,-41.16999816894531 9.835000038146973,-43.24399948120117z"/></g></g><g style="display: block;" transform="matrix(1.25,0,0,1.25,-61.999752044677734,-58.00022888183594)" opacity="0.9"><g opacity="1" transform="matrix(1,0,0,1,212.87399291992188,240.6280059814453)"><path fill="url(#__lottie_element_26)" fill-opacity="1" d=" M15.690999984741211,-39.27000045776367 C12.609000205993652,-39.21500015258789 6.184000015258789,-39.36199951171875 -1.6339999437332153,-41.00400161743164 C-2.882999897003174,-41.26599884033203 -3.943000078201294,-40.45000076293945 -3.9839999675750732,-39.17499923706055 C-4.308000087738037,-29.18600082397461 -6.2769999504089355,10.531000137329102 -17.520999908447266,37.422000885009766 C-17.979000091552734,38.518001556396484 -17.339000701904297,39.76100158691406 -16.18400001525879,40.04100036621094 C-13.196000099182129,40.76499938964844 -7.423999786376953,41.69200134277344 -0.5360000133514404,40.426998138427734 C0.06499999761581421,40.31700134277344 0.5730000138282776,39.922000885009766 0.8429999947547913,39.374000549316406 C3.5220000743865967,33.928001403808594 17.606000900268555,3.375 17.670000076293945,-37.32600021362305 C17.672000885009766,-38.41400146484375 16.77899932861328,-39.28900146484375 15.690999984741211,-39.27000045776367z"/></g><g opacity="1" transform="matrix(1,0,0,1,198.32200622558594,293.3139953613281)"><path fill="url(#__lottie_element_27)" fill-opacity="1" d=" M8.20199966430664,-5.008999824523926 C5.3379998207092285,-4.690000057220459 1.2170000076293945,-4.627999782562256 -3.8989999294281006,-5.620999813079834 C-4.690000057220459,-5.210000038146973 -5.22599983215332,-4.932000160217285 -6.017000198364258,-4.520999908447266 C-6.756999969482422,-2.9100000858306885 -8.133999824523926,-0.15399999916553497 -9.99899959564209,2.5190000534057617 C-10.885000228881836,3.7899999618530273 -10.048999786376953,5.5269999504089355 -8.50100040435791,5.59499979019165 C-3.9730000495910645,5.794000148773193 3.9570000171661377,5 9.866000175476074,-1.777999997138977 C11.039999961853027,-3.125 9.977999687194824,-5.206999778747559 8.20199966430664,-5.008999824523926z"/></g></g><g style="display: block;" transform="matrix(1.25,0,0,1.25,-62.000038146972656,-57.99998092651367)" opacity="1"><g opacity="1" transform="matrix(1,0,0,1,339.46099853515625,281.76300048828125)"><path fill="url(#__lottie_element_32)" fill-opacity="1" d=" M-80.61900329589844,-122.04199981689453 C-84.99800109863281,-101.55999755859375 -90.47799682617188,-32.04600143432617 -62.05799865722656,-6.461999893188477 C-31.79599952697754,20.77899932861328 -8.255999565124512,8.510000228881836 -3.25600004196167,25.177000045776367 C1.74399995803833,41.84400177001953 18.40999984741211,101.84400177001953 18.40999984741211,101.84400177001953 C18.40999984741211,101.84400177001953 21.743999481201172,110.927001953125 12.494000434875488,115.677001953125 C4.401000022888184,119.83300018310547 -25.59000015258789,134.6219940185547 -17.59000015258789,143.843994140625 C-5.2270002365112305,158.0959930419922 81.01200103759766,131.6739959716797 84.0770034790039,114.51000213623047 C86.29900360107422,102.06600189208984 47.61600112915039,108.80999755859375 37.82699966430664,107.26000213623047 C31.687999725341797,106.28800201416016 29.993999481201172,98.51000213623047 29.993999481201172,98.51000213623047 C29.993999481201172,98.51000213623047 14.15999984741211,38.59400177001953 9.15999984741211,21.927000045776367 C4.159999847412109,5.260000228881836 34.275001525878906,-5.841000080108643 44.632999420166016,-37.37900161743164 C53.48500061035156,-64.33200073242188 32.74399948120117,-113.48999786376953 4.664000034332275,-143.0279998779297 C-7.701000213623047,-156.5449981689453 -76.58999633789062,-139.54600524902344 -80.61900329589844,-122.04199981689453z"/></g><g opacity="1" transform="matrix(1,0,0,1,364.9630126953125,220.69900512695312)"><path fill="url(#__lottie_element_33)" fill-opacity="1" d=" M-21.23699951171875,-70.95999908447266 C-21.23699951171875,-70.95999908447266 19.047000885009766,-17.18600082397461 9.869000434875488,20.492000579833984 C-0.00800000037997961,61.03799819946289 -19.56800079345703,64.14700317382812 -16.88800048828125,79.67400360107422 C-14.925000190734863,57.99100112915039 26.825000762939453,45.492000579833984 20.606000900268555,0.27000001072883606 C13.770000457763672,-49.4379997253418 -18.711999893188477,-79.67400360107422 -18.711999893188477,-79.67400360107422 C-18.711999893188477,-79.67400360107422 -21.23699951171875,-70.95999908447266 -21.23699951171875,-70.95999908447266z"/></g><g opacity="1" transform="matrix(1,0,0,1,294.1029968261719,230.70199584960938)"><path fill="url(#__lottie_element_34)" fill-opacity="1" d=" M-27.898000717163086,-64.01499938964844 C-27.898000717163086,-64.01499938964844 -36.459999084472656,2.246999979019165 -12.789999961853027,32.96500015258789 C10.880000114440918,63.68299865722656 34.10900115966797,56.05500030517578 39.1609992980957,70.9800033569336 C25.101999282836914,58.737998962402344 -17.231000900268555,64.5719985961914 -30.584999084472656,23.35700035095215 C-46.612998962402344,-26.113000869750977 -35.2599983215332,-70.9800033569336 -35.2599983215332,-70.9800033569336 C-35.2599983215332,-70.9800033569336 -27.898000717163086,-64.01499938964844 -27.898000717163086,-64.01499938964844z"/></g><g opacity="0.6" transform="matrix(1,0,0,1,330.9200134277344,172.11099243164062)"><path fill="url(#__lottie_element_35)" fill-opacity="1" d=" M-8.555000305175781,-38.1619987487793 C-8.555000305175781,-38.1619987487793 -14.937000274658203,-37.672000885009766 -22.12299919128418,-36.676998138427734 C-22.12299919128418,-36.676998138427734 0,-10.72700023651123 8.541999816894531,38.1619987487793 C8.541999816894531,38.1619987487793 22.12299919128418,34.07600021362305 22.12299919128418,34.07600021362305 C22.12299919128418,34.07600021362305 18.349000930786133,-0.8180000185966492 -8.555000305175781,-38.1619987487793z"/></g><g opacity="1" transform="matrix(1,0,0,1,368.2850036621094,384.34600830078125)"><path fill="url(#__lottie_element_36)" fill-opacity="1" d=" M-16.82900047302246,16.344999313354492 C-16.82900047302246,16.344999313354492 -3.1760001182556152,6.479000091552734 16.82900047302246,7.249000072479248 C16.82900047302246,7.249000072479248 6.4629998207092285,6.76800012588501 2.5460000038146973,-2.240999937057495 C0.8579999804496765,-6.123000144958496 -1.434000015258789,-16.344999313354492 -1.434000015258789,-16.344999313354492 C-1.434000015258789,-16.344999313354492 -13.690999984741211,-12.95300006866455 -13.690999984741211,-12.95300006866455 C-13.690999984741211,-12.95300006866455 -9.074000358581543,1.8450000286102295 -9.074000358581543,1.8450000286102295 C-9.074000358581543,1.8450000286102295 -7.0279998779296875,9.92199993133545 -16.82900047302246,16.344999313354492z"/></g><g opacity="1" transform="matrix(1,0,0,1,337.02899169921875,303.86700439453125)"><path fill="url(#__lottie_element_37)" fill-opacity="1" d=" M-16.759000778198242,-7.85099983215332 C-16.759000778198242,-7.85099983215332 5.508999824523926,-4.426000118255615 16.759000778198242,-16.57699966430664 C16.759000778198242,-16.57699966430664 10.008999824523926,-10.760000228881836 11.366000175476074,-1.031000018119812 C11.951000213623047,3.1610000133514404 15.32699966430664,13.07800006866455 15.32699966430664,13.07800006866455 C15.32699966430664,13.07800006866455 3.1010000705718994,16.57699966430664 3.1010000705718994,16.57699966430664 C3.1010000705718994,16.57699966430664 -1.906000018119812,0.4059999883174896 -1.906000018119812,0.4059999883174896 C-1.906000018119812,0.4059999883174896 -5.046999931335449,-7.482999801635742 -16.759000778198242,-7.85099983215332z"/></g><g opacity="1" transform="matrix(1,0,0,1,371.7489929199219,409.77301025390625)"><path fill="url(#__lottie_element_38)" fill-opacity="1" d=" M-47.60200119018555,5.5370001792907715 C-47.60200119018555,5.5370001792907715 -44.76599884033203,17.19700050354004 2.122999906539917,3.5 C46.54899978637695,-9.47700023651123 43.79499816894531,-20.42300033569336 43.79499816894531,-20.42300033569336 C43.79499816894531,-20.42300033569336 78.0469970703125,-6.251999855041504 4.191999912261963,13.020999908447266 C-73.43299865722656,33.27799987792969 -47.60200119018555,5.5370001792907715 -47.60200119018555,5.5370001792907715z"/></g><g opacity="1" transform="matrix(1,0,0,1,339.46099853515625,281.76300048828125)"><path stroke-linecap="round" stroke-linejoin="round" fill-opacity="0" stroke="rgb(186,26,106)" stroke-opacity="1" stroke-width="6" d=" M-80.61900329589844,-122.04199981689453 C-84.99800109863281,-101.55999755859375 -90.47799682617188,-32.04600143432617 -62.05799865722656,-6.461999893188477 C-31.79599952697754,20.77899932861328 -8.255999565124512,8.510000228881836 -3.25600004196167,25.177000045776367 C1.74399995803833,41.84400177001953 18.40999984741211,101.84400177001953 18.40999984741211,101.84400177001953 C18.40999984741211,101.84400177001953 21.743999481201172,110.927001953125 12.494000434875488,115.677001953125 C4.400000095367432,119.83300018310547 -25.59000015258789,134.6219940185547 -17.59000015258789,143.843994140625 C-5.2270002365112305,158.0959930419922 81.01200103759766,131.6739959716797 84.0770034790039,114.51000213623047 C86.29900360107422,102.06600189208984 47.61600112915039,108.80999755859375 37.82699966430664,107.26000213623047 C31.687999725341797,106.28800201416016 29.993999481201172,98.51000213623047 29.993999481201172,98.51000213623047 C29.993999481201172,98.51000213623047 14.15999984741211,38.59400177001953 9.15999984741211,21.927000045776367 C4.159999847412109,5.260000228881836 34.275001525878906,-5.841000080108643 44.632999420166016,-37.37900161743164 C53.48500061035156,-64.33200073242188 32.74399948120117,-113.48999786376953 4.664000034332275,-143.0279998779297 C-7.701000213623047,-156.5449981689453 -76.58999633789062,-139.54600524902344 -80.61900329589844,-122.04199981689453z"/></g><g opacity="1" transform="matrix(1,0,0,1,302.4200134277344,156.31900024414062)"><path fill="rgb(255,255,255)" fill-opacity="1" d=" M-43.577999114990234,3.4019999504089355 C-43.577999114990234,3.4019999504089355 -46.15599822998047,16.65999984741211 2.759000062942505,7.918000221252441 C51.67399978637695,-0.8240000009536743 41.70600128173828,-17.583999633789062 41.70600128173828,-17.583999633789062 C41.70600128173828,-17.583999633789062 57.21500015258789,1.7480000257492065 4.452000141143799,13.843000411987305 C-50.220001220703125,26.375999450683594 -43.577999114990234,3.4019999504089355 -43.577999114990234,3.4019999504089355z"/></g><g opacity="1" transform="matrix(1,0,0,1,301.89801025390625,150.89100646972656)"><path fill="url(#__lottie_element_39)" fill-opacity="1" d=" M42.98099899291992,-10.567000389099121 C44.792999267578125,-3.196000099182129 27.018999099731445,7.510000228881836 3.2809998989105225,13.345999717712402 C-20.457000732421875,19.18199920654297 -41.16899871826172,17.937999725341797 -42.98099899291992,10.567000389099121 C-44.792999267578125,3.196000099182129 -27.018999099731445,-7.510000228881836 -3.2809998989105225,-13.345999717712402 C20.457000732421875,-19.18199920654297 41.16899871826172,-17.937999725341797 42.98099899291992,-10.567000389099121z"/></g><g opacity="1" transform="matrix(1,0,0,1,301.89801025390625,150.89100646972656)"><path stroke-linecap="round" stroke-linejoin="round" fill-opacity="0" stroke="rgb(214,37,117)" stroke-opacity="1" stroke-width="6" d=" M42.98099899291992,-10.567000389099121 C44.792999267578125,-3.196000099182129 27.018999099731445,7.510000228881836 3.2809998989105225,13.345999717712402 C-20.457000732421875,19.18199920654297 -41.16899871826172,17.937999725341797 -42.98099899291992,10.567000389099121 C-44.792999267578125,3.196000099182129 -27.018999099731445,-7.510000228881836 -3.2809998989105225,-13.345999717712402 C20.457000732421875,-19.18199920654297 41.16899871826172,-17.937999725341797 42.98099899291992,-10.567000389099121z"/></g><g opacity="1" transform="matrix(1,0,0,1,361.6669921875,413.1619873046875)"><path fill="rgb(255,255,255)" fill-opacity="1" d=" M-24.31399917602539,6.947000026702881 C-15.96399974822998,11.175999641418457 12.505999565124512,3.8469998836517334 21.80900001525879,-2.197000026702881 C29.107999801635742,-6.939000129699707 25.040000915527344,-9.946999549865723 18.3799991607666,-7.085000038146973 C8.16100025177002,-2.694999933242798 -4.645999908447266,1.972000002861023 -18.128000259399414,2.055999994277954 C-25.204999923706055,2.0999999046325684 -27.424999237060547,5.370999813079834 -24.31399917602539,6.947000026702881z"/></g></g><g style="display: block;" transform="matrix(1.25,0,0,1.25,-62.000038146972656,-57.99998092651367)" opacity="1"><g opacity="1" transform="matrix(1,0,0,1,321.2409973144531,246.24600219726562)"><path fill="rgb(255,174,215)" fill-opacity="1" d=" M50.85300064086914,-35.4900016784668 C50.85300064086914,-35.4900016784668 45.49100112915039,-20.672000885009766 0.8109999895095825,-14.862000465393066 C-48.332000732421875,-8.472000122070312 -53.590999603271484,-21.86199951171875 -53.590999603271484,-21.86199951171875 C-53.590999603271484,-21.86199951171875 -53.81399917602539,23.25 -14.258000373840332,33.694000244140625 C25.29800033569336,44.13800048828125 64.4010009765625,7.443999767303467 50.85300064086914,-35.4900016784668z"/></g><g opacity="1" transform="matrix(1,0,0,1,320.8089904785156,241.66200256347656)"><path fill="url(#__lottie_element_43)" fill-opacity="1" d=" M-53.159000396728516,-18.99799919128418 C-53.159000396728516,-18.99799919128418 -53.38199996948242,20.41699981689453 -13.826000213623047,29.542999267578125 C25.729999542236328,38.66899871826172 61.895999908447266,0.10400000214576721 51.28499984741211,-30.905000686645508"/></g><g opacity="1" transform="matrix(1,0,0,1,321.2409973144531,246.24600219726562)"><path stroke-linecap="round" stroke-linejoin="round" fill-opacity="0" stroke="rgb(216,39,132)" stroke-opacity="1" stroke-width="6" d=" M-53.590999603271484,-21.86199951171875 C-53.590999603271484,-21.86199951171875 -53.81399917602539,23.25 -14.258000373840332,33.694000244140625 C25.29800033569336,44.13800048828125 64.4010009765625,7.443999767303467 50.85300064086914,-35.4900016784668"/></g></g><g style="display: block;" transform="matrix(1.25,0,0,1.25,-62.000038146972656,-57.99998092651367)" opacity="1"><g opacity="1" transform="matrix(1,0,0,1,319.8739929199219,217.9040069580078)"><path fill="rgb(255,148,197)" fill-opacity="1" d=" M52.191001892089844,-7.357999801635742 C53.250999450683594,0.15800000727176666 30.743000030517578,9.545000076293945 1.9190000295639038,13.609000205993652 C-26.905000686645508,17.67300033569336 -51.13100051879883,14.87399959564209 -52.191001892089844,7.357999801635742 C-53.250999450683594,-0.15800000727176666 -30.743000030517578,-9.545000076293945 -1.9190000295639038,-13.609000205993652 C26.905000686645508,-17.67300033569336 51.13100051879883,-14.87399959564209 52.191001892089844,-7.357999801635742z"/></g><g opacity="1" transform="matrix(1,0,0,1,320.1369934082031,214.43600463867188)"><path fill="rgb(255,215,237)" fill-opacity="1" d=" M-51.902000427246094,12.319000244140625 C-51.902000427246094,12.319000244140625 -30.93199920654297,0.9210000038146973 2.568000078201294,-3.1619999408721924 C23.40399932861328,-5.702000141143799 45.948001861572266,-3.7090001106262207 50.922000885009766,-0.4819999933242798 C50.922000885009766,-0.4819999933242798 63.23500061035156,-17.746000289916992 1.1039999723434448,-10.576000213623047 C-45.32899856567383,-5.2179999351501465 -52.24800109863281,5.190000057220459 -51.902000427246094,12.319000244140625z"/></g><g opacity="1" transform="matrix(1,0,0,1,319.8739929199219,217.9040069580078)"><path stroke-linecap="round" stroke-linejoin="round" fill-opacity="0" stroke="rgb(216,39,132)" stroke-opacity="1" stroke-width="6" d=" M52.191001892089844,-7.357999801635742 C53.250999450683594,0.15800000727176666 30.743000030517578,9.545000076293945 1.9190000295639038,13.609000205993652 C-26.905000686645508,17.67300033569336 -51.13100051879883,14.87399959564209 -52.191001892089844,7.357999801635742 C-53.250999450683594,-0.15800000727176666 -30.743000030517578,-9.545000076293945 -1.9190000295639038,-13.609000205993652 C26.905000686645508,-17.67300033569336 51.13100051879883,-14.87399959564209 52.191001892089844,-7.357999801635742z"/></g></g><g style="display: none;" transform="matrix(0.7851631045341492,1.4937119483947754,-1.1064531803131104,0.5816022753715515,387.69110107421875,-215.15457153320312)" opacity="1"><g opacity="1" transform="matrix(1,0,0,1,186.25399780273438,237.56300354003906)"><path fill="rgb(255,148,197)" fill-opacity="1" d=" M15.060999870300293,-28.687000274658203 C15.13700008392334,-26.41699981689453 17.257999420166016,-30.229000091552734 17.947999954223633,-33.1349983215332 C18.650999069213867,-36.095001220703125 20.086999893188477,-42.77000045776367 19.266000747680664,-45.887001037597656 C18.8700008392334,-47.39099884033203 16.81399917602539,-42.152000427246094 16.113000869750977,-39.20000076293945 C15.395000457763672,-36.176998138427734 14.92199993133545,-32.85900115966797 15.060999870300293,-28.687000274658203z"/></g><g opacity="1" transform="matrix(1,0,0,1,185.99099731445312,234.09500122070312)"><path fill="rgb(255,215,237)" fill-opacity="1" d=" M19.545000076293945,-42.130001068115234 C19.84000015258789,-41.8650016784668 17.749000549316406,-36.23899841308594 17.30900001525879,-34.433998107910156 C16.70599937438965,-31.961000442504883 15.791000366210938,-25.527999877929688 15.371999740600586,-25.39699935913086 C15.107000350952148,-28.481000900268555 15.765999794006348,-33.03300094604492 16.444000244140625,-35.770999908447266 C17.18899917602539,-38.77899932861328 19.115999221801758,-44.32600021362305 19.545000076293945,-42.130001068115234z"/></g><g opacity="1" transform="matrix(1,0,0,1,186.25399780273438,237.56300354003906)"><path stroke-linecap="round" stroke-linejoin="round" fill-opacity="0" stroke="rgb(216,39,132)" stroke-opacity="1" stroke-width="6" d=" M15.060999870300293,-28.687000274658203 C15.130999565124512,-26.4060001373291 17.257999420166016,-30.229000091552734 17.947999954223633,-33.1349983215332 C18.650999069213867,-36.095001220703125 20.086999893188477,-42.77000045776367 19.266000747680664,-45.887001037597656 C18.8700008392334,-47.39099884033203 16.81399917602539,-42.152000427246094 16.113000869750977,-39.20000076293945 C15.395000457763672,-36.176998138427734 14.918000221252441,-33.340999603271484 15.060999870300293,-28.687000274658203z"/></g></g><g style="display: block;" transform="matrix(1.25,0,0,1.25,-62.000038146972656,-57.99998092651367)" opacity="0.9"><g opacity="1" transform="matrix(1,0,0,1,293.25299072265625,220.968994140625)"><path fill="url(#__lottie_element_50)" fill-opacity="1" d=" M-15.690999984741211,-39.27000045776367 C-12.609000205993652,-39.21500015258789 -6.184000015258789,-39.36199951171875 1.6339999437332153,-41.00400161743164 C2.882999897003174,-41.26599884033203 3.943000078201294,-40.45000076293945 3.9839999675750732,-39.17499923706055 C4.308000087738037,-29.18600082397461 6.2769999504089355,10.531000137329102 17.520999908447266,37.422000885009766 C17.979000091552734,38.518001556396484 17.339000701904297,39.76100158691406 16.18400001525879,40.04100036621094 C13.196000099182129,40.76499938964844 7.423999786376953,41.69200134277344 0.5360000133514404,40.426998138427734 C-0.06499999761581421,40.31700134277344 -0.5730000138282776,39.922000885009766 -0.8429999947547913,39.374000549316406 C-3.5220000743865967,33.928001403808594 -17.606000900268555,3.375 -17.670000076293945,-37.32600021362305 C-17.672000885009766,-38.41400146484375 -16.77899932861328,-39.28900146484375 -15.690999984741211,-39.27000045776367z"/></g><g opacity="1" transform="matrix(1,0,0,1,307.80499267578125,273.6549987792969)"><path fill="url(#__lottie_element_51)" fill-opacity="1" d=" M-8.20199966430664,-5.008999824523926 C-5.3379998207092285,-4.690000057220459 -1.2170000076293945,-4.627999782562256 3.8989999294281006,-5.620999813079834 C4.690000057220459,-5.210000038146973 5.22599983215332,-4.932000160217285 6.017000198364258,-4.520999908447266 C6.756999969482422,-2.9100000858306885 8.133999824523926,-0.15399999916553497 9.99899959564209,2.5190000534057617 C10.885000228881836,3.7899999618530273 10.048999786376953,5.5269999504089355 8.50100040435791,5.59499979019165 C3.9730000495910645,5.794000148773193 -3.9570000171661377,5 -9.866000175476074,-1.777999997138977 C-11.039999961853027,-3.125 -9.977999687194824,-5.206999778747559 -8.20199966430664,-5.008999824523926z"/></g></g><g style="display: none;" transform="matrix(1.25,0,0,1.25,-61.999755859375,-57.999755859375)" opacity="1"><g opacity="1" transform="matrix(1,0,0,1,230.88900756835938,123.3949966430664)"><path fill="url(#__lottie_element_100)" fill-opacity="1" d=" M-0.28200000524520874,-11.770000457763672 C2.802999973297119,-27.489999771118164 24.77400016784668,-30.202999114990234 26.966999053955078,-13.105999946594238 C29.15999984741211,3.990999937057495 4.949999809265137,24.791000366210938 4.949999809265137,24.791000366210938 C4.949999809265137,24.791000366210938 -24.476999282836914,13.366000175476074 -26.969999313354492,-6.061999797821045 C-28.964000701904297,-21.604999542236328 -8.723999977111816,-26.011999130249023 -0.28200000524520874,-11.770000457763672z"/></g><g opacity="1" transform="matrix(1,0,0,1,230.91799926757812,128.45199584960938)"><path fill="rgb(255,97,175)" fill-opacity="1" d=" M26.965999603271484,-17.937999725341797 C29.159000396728516,-0.8410000205039978 4.949999809265137,19.958999633789062 4.949999809265137,19.958999633789062 C4.949999809265137,19.958999633789062 -24.47800064086914,8.532999992370605 -26.97100067138672,-10.895000457763672 C-27.05500030517578,-11.545999526977539 -27.099000930786133,-12.178000450134277 -27.10700035095215,-12.789999961853027 C-22.895999908447266,5.373000144958496 3.86899995803833,11.552000045776367 3.86899995803833,11.552000045776367 C3.86899995803833,11.552000045776367 26.856000900268555,-3.2720000743865967 26.594999313354492,-19.958999633789062 C26.750999450683594,-19.319000244140625 26.875,-18.645000457763672 26.965999603271484,-17.937999725341797z"/></g><g opacity="1" transform="matrix(1,0,0,1,230.64999389648438,118.69300079345703)"><path fill="url(#__lottie_element_101)" fill-opacity="1" d=" M-0.1850000023841858,-0.027000000700354576 C0.23000000417232513,0.5889999866485596 1.315000057220459,0.42899999022483826 1.4980000257492065,-0.28999999165534973 C5.671000003814697,-16.64699935913086 21.5310001373291,-16.266000747680664 21.60300064086914,-4.008999824523926 C21.719999313354492,15.940999984741211 -17.56399917602539,19.18600082397461 -21.44099998474121,0.7250000238418579 C-23.145000457763672,-7.389999866485596 -11.067000389099121,-16.18000030517578 -0.1850000023841858,-0.027000000700354576z"/></g><g opacity="1" transform="matrix(1,0,0,1,230.91700744628906,123.61900329589844)"><path stroke-linecap="round" stroke-linejoin="round" fill-opacity="0" stroke="rgb(177,24,94)" stroke-opacity="1" stroke-width="6" d=" M-0.28200000524520874,-11.770000457763672 C2.802999973297119,-27.489999771118164 24.77400016784668,-30.202999114990234 26.966999053955078,-13.105999946594238 C29.15999984741211,3.990999937057495 4.949999809265137,24.791000366210938 4.949999809265137,24.791000366210938 C4.949999809265137,24.791000366210938 -24.476999282836914,13.366000175476074 -26.969999313354492,-6.061999797821045 C-28.964000701904297,-21.604999542236328 -8.723999977111816,-26.011999130249023 -0.28200000524520874,-11.770000457763672z"/></g></g><g style="display: none;" transform="matrix(1.2310097217559814,-0.21706022322177887,0.21706022322177887,1.2310097217559814,-18.423309326171875,-59.78446578979492)" opacity="1"><g opacity="1" transform="matrix(1,0,0,1,230.88900756835938,123.3949966430664)"><path fill="url(#__lottie_element_83)" fill-opacity="1" d=" M-0.28200000524520874,-11.770000457763672 C2.802999973297119,-27.489999771118164 24.77400016784668,-30.202999114990234 26.966999053955078,-13.105999946594238 C29.15999984741211,3.990999937057495 4.949999809265137,24.791000366210938 4.949999809265137,24.791000366210938 C4.949999809265137,24.791000366210938 -24.476999282836914,13.366000175476074 -26.969999313354492,-6.061999797821045 C-28.964000701904297,-21.604999542236328 -8.723999977111816,-26.011999130249023 -0.28200000524520874,-11.770000457763672z"/></g><g opacity="1" transform="matrix(1,0,0,1,230.91799926757812,128.45199584960938)"><path fill="rgb(255,97,175)" fill-opacity="1" d=" M26.965999603271484,-17.937999725341797 C29.159000396728516,-0.8410000205039978 4.949999809265137,19.958999633789062 4.949999809265137,19.958999633789062 C4.949999809265137,19.958999633789062 -24.47800064086914,8.532999992370605 -26.97100067138672,-10.895000457763672 C-27.05500030517578,-11.545999526977539 -27.099000930786133,-12.178000450134277 -27.10700035095215,-12.789999961853027 C-22.895999908447266,5.373000144958496 3.86899995803833,11.552000045776367 3.86899995803833,11.552000045776367 C3.86899995803833,11.552000045776367 26.856000900268555,-3.2720000743865967 26.594999313354492,-19.958999633789062 C26.750999450683594,-19.319000244140625 26.875,-18.645000457763672 26.965999603271484,-17.937999725341797z"/></g><g opacity="1" transform="matrix(1,0,0,1,230.64999389648438,118.69300079345703)"><path fill="url(#__lottie_element_84)" fill-opacity="1" d=" M-0.1850000023841858,-0.027000000700354576 C0.23000000417232513,0.5889999866485596 1.315000057220459,0.42899999022483826 1.4980000257492065,-0.28999999165534973 C5.671000003814697,-16.64699935913086 21.5310001373291,-16.266000747680664 21.60300064086914,-4.008999824523926 C21.719999313354492,15.940999984741211 -17.56399917602539,19.18600082397461 -21.44099998474121,0.7250000238418579 C-23.145000457763672,-7.389999866485596 -11.067000389099121,-16.18000030517578 -0.1850000023841858,-0.027000000700354576z"/></g><g opacity="1" transform="matrix(1,0,0,1,230.91700744628906,123.61900329589844)"><path stroke-linecap="round" stroke-linejoin="round" fill-opacity="0" stroke="rgb(177,24,94)" stroke-opacity="1" stroke-width="6" d=" M-0.28200000524520874,-11.770000457763672 C2.802999973297119,-27.489999771118164 24.77400016784668,-30.202999114990234 26.966999053955078,-13.105999946594238 C29.15999984741211,3.990999937057495 4.949999809265137,24.791000366210938 4.949999809265137,24.791000366210938 C4.949999809265137,24.791000366210938 -24.476999282836914,13.366000175476074 -26.969999313354492,-6.061999797821045 C-28.964000701904297,-21.604999542236328 -8.723999977111816,-26.011999130249023 -0.28200000524520874,-11.770000457763672z"/></g></g><g style="display: none;" transform="matrix(1.2000000476837158,0,0,1.2000000476837158,256.5,361.6000061035156)" opacity="1"><g opacity="1" transform="matrix(1,0,0,1,0,0)"><path stroke-linecap="round" stroke-linejoin="round" fill-opacity="0" stroke="rgb(81,173,249)" stroke-opacity="1" stroke-width="6" d="M0 0"/></g></g><g style="display: none;" transform="matrix(0.8485281467437744,0.8485281467437744,-0.8485281467437744,0.8485281467437744,147.0097198486328,318.7329406738281)" opacity="1"><g opacity="1" transform="matrix(1,0,0,1,0,0)"><path stroke-linecap="round" stroke-linejoin="round" fill-opacity="0" stroke="rgb(81,173,249)" stroke-opacity="1" stroke-width="6" d="M0 0"/></g></g><g style="display: none;" transform="matrix(0,1.2000000476837158,-1.2000000476837158,0,99.89999389648438,211)" opacity="1"><g opacity="1" transform="matrix(1,0,0,1,0,0)"><path stroke-linecap="round" stroke-linejoin="round" fill-opacity="0" stroke="rgb(81,173,249)" stroke-opacity="1" stroke-width="6" d="M0 0"/></g></g><g style="display: none;" transform="matrix(-0.8485281467437744,0.8485281467437744,-0.8485281467437744,-0.8485281467437744,142.76707458496094,101.50971984863281)" opacity="1"><g opacity="1" transform="matrix(1,0,0,1,0,0)"><path stroke-linecap="round" stroke-linejoin="round" fill-opacity="0" stroke="rgb(81,173,249)" stroke-opacity="1" stroke-width="6" d="M0 0"/></g></g><g style="display: none;" transform="matrix(-1.2000000476837158,0,0,-1.2000000476837158,250.5,54.399993896484375)" opacity="1"><g opacity="1" transform="matrix(1,0,0,1,0,0)"><path stroke-linecap="round" stroke-linejoin="round" fill-opacity="0" stroke="rgb(81,173,249)" stroke-opacity="1" stroke-width="6" d="M0 0"/></g></g><g style="display: none;" transform="matrix(-0.8485281467437744,-0.8485281467437744,0.8485281467437744,-0.8485281467437744,359.99029541015625,97.26707458496094)" opacity="1"><g opacity="1" transform="matrix(1,0,0,1,0,0)"><path stroke-linecap="round" stroke-linejoin="round" fill-opacity="0" stroke="rgb(81,173,249)" stroke-opacity="1" stroke-width="6" d="M0 0"/></g></g><g style="display: none;" transform="matrix(0,-1.2000000476837158,1.2000000476837158,0,407.1000061035156,205)" opacity="1"><g opacity="1" transform="matrix(1,0,0,1,0,0)"><path stroke-linecap="round" stroke-linejoin="round" fill-opacity="0" stroke="rgb(81,173,249)" stroke-opacity="1" stroke-width="6" d="M0 0"/></g></g><g style="display: none;" transform="matrix(0.7713451981544495,-0.9192533493041992,0.9192533493041992,0.7713451981544495,373.0928039550781,304.4340515136719)" opacity="1"><g opacity="1" transform="matrix(1,0,0,1,0,0)"><path stroke-linecap="round" stroke-linejoin="round" fill-opacity="0" stroke="rgb(81,173,249)" stroke-opacity="1" stroke-width="6" d="M0 0"/></g></g><g style="display: block;" transform="matrix(1.25,0,0,1.25,-61.999755859375,-57.999755859375)" opacity="1"><g opacity="1" transform="matrix(1,0,0,1,230.88900756835938,123.3949966430664)"><path fill="url(#__lottie_element_55)" fill-opacity="1" d=" M-0.28200000524520874,-11.770000457763672 C2.802999973297119,-27.489999771118164 24.77400016784668,-30.202999114990234 26.966999053955078,-13.105999946594238 C29.15999984741211,3.990999937057495 4.949999809265137,24.791000366210938 4.949999809265137,24.791000366210938 C4.949999809265137,24.791000366210938 -24.476999282836914,13.366000175476074 -26.969999313354492,-6.061999797821045 C-28.964000701904297,-21.604999542236328 -8.723999977111816,-26.011999130249023 -0.28200000524520874,-11.770000457763672z"/></g><g opacity="1" transform="matrix(1,0,0,1,230.91799926757812,128.45199584960938)"><path fill="rgb(255,97,175)" fill-opacity="1" d=" M26.965999603271484,-17.937999725341797 C29.159000396728516,-0.8410000205039978 4.949999809265137,19.958999633789062 4.949999809265137,19.958999633789062 C4.949999809265137,19.958999633789062 -24.47800064086914,8.532999992370605 -26.97100067138672,-10.895000457763672 C-27.05500030517578,-11.545999526977539 -27.099000930786133,-12.178000450134277 -27.10700035095215,-12.789999961853027 C-22.895999908447266,5.373000144958496 3.86899995803833,11.552000045776367 3.86899995803833,11.552000045776367 C3.86899995803833,11.552000045776367 26.856000900268555,-3.2720000743865967 26.594999313354492,-19.958999633789062 C26.750999450683594,-19.319000244140625 26.875,-18.645000457763672 26.965999603271484,-17.937999725341797z"/></g><g opacity="1" transform="matrix(1,0,0,1,230.64999389648438,118.69300079345703)"><path fill="url(#__lottie_element_56)" fill-opacity="1" d=" M-0.1850000023841858,-0.027000000700354576 C0.23000000417232513,0.5889999866485596 1.315000057220459,0.42899999022483826 1.4980000257492065,-0.28999999165534973 C5.671000003814697,-16.64699935913086 21.5310001373291,-16.266000747680664 21.60300064086914,-4.008999824523926 C21.719999313354492,15.940999984741211 -17.56399917602539,19.18600082397461 -21.44099998474121,0.7250000238418579 C-23.145000457763672,-7.389999866485596 -11.067000389099121,-16.18000030517578 -0.1850000023841858,-0.027000000700354576z"/></g><g opacity="1" transform="matrix(1,0,0,1,230.91700744628906,123.61900329589844)"><path stroke-linecap="round" stroke-linejoin="round" fill-opacity="0" stroke="rgb(177,24,94)" stroke-opacity="1" stroke-width="6" d=" M-0.28200000524520874,-11.770000457763672 C2.802999973297119,-27.489999771118164 24.77400016784668,-30.202999114990234 26.966999053955078,-13.105999946594238 C29.15999984741211,3.990999937057495 4.949999809265137,24.791000366210938 4.949999809265137,24.791000366210938 C4.949999809265137,24.791000366210938 -24.476999282836914,13.366000175476074 -26.969999313354492,-6.061999797821045 C-28.964000701904297,-21.604999542236328 -8.723999977111816,-26.011999130249023 -0.28200000524520874,-11.770000457763672z"/></g></g><g style="display: block;" transform="matrix(1.2310097217559814,-0.21706022322177887,0.21706022322177887,1.2310097217559814,-18.423309326171875,-59.78446578979492)" opacity="1"><g opacity="1" transform="matrix(1,0,0,1,230.88900756835938,123.3949966430664)"><path fill="url(#__lottie_element_60)" fill-opacity="1" d=" M-0.28200000524520874,-11.770000457763672 C2.802999973297119,-27.489999771118164 24.77400016784668,-30.202999114990234 26.966999053955078,-13.105999946594238 C29.15999984741211,3.990999937057495 4.949999809265137,24.791000366210938 4.949999809265137,24.791000366210938 C4.949999809265137,24.791000366210938 -24.476999282836914,13.366000175476074 -26.969999313354492,-6.061999797821045 C-28.964000701904297,-21.604999542236328 -8.723999977111816,-26.011999130249023 -0.28200000524520874,-11.770000457763672z"/></g><g opacity="1" transform="matrix(1,0,0,1,230.91799926757812,128.45199584960938)"><path fill="rgb(255,97,175)" fill-opacity="1" d=" M26.965999603271484,-17.937999725341797 C29.159000396728516,-0.8410000205039978 4.949999809265137,19.958999633789062 4.949999809265137,19.958999633789062 C4.949999809265137,19.958999633789062 -24.47800064086914,8.532999992370605 -26.97100067138672,-10.895000457763672 C-27.05500030517578,-11.545999526977539 -27.099000930786133,-12.178000450134277 -27.10700035095215,-12.789999961853027 C-22.895999908447266,5.373000144958496 3.86899995803833,11.552000045776367 3.86899995803833,11.552000045776367 C3.86899995803833,11.552000045776367 26.856000900268555,-3.2720000743865967 26.594999313354492,-19.958999633789062 C26.750999450683594,-19.319000244140625 26.875,-18.645000457763672 26.965999603271484,-17.937999725341797z"/></g><g opacity="1" transform="matrix(1,0,0,1,230.64999389648438,118.69300079345703)"><path fill="url(#__lottie_element_61)" fill-opacity="1" d=" M-0.1850000023841858,-0.027000000700354576 C0.23000000417232513,0.5889999866485596 1.315000057220459,0.42899999022483826 1.4980000257492065,-0.28999999165534973 C5.671000003814697,-16.64699935913086 21.5310001373291,-16.266000747680664 21.60300064086914,-4.008999824523926 C21.719999313354492,15.940999984741211 -17.56399917602539,19.18600082397461 -21.44099998474121,0.7250000238418579 C-23.145000457763672,-7.389999866485596 -11.067000389099121,-16.18000030517578 -0.1850000023841858,-0.027000000700354576z"/></g><g opacity="1" transform="matrix(1,0,0,1,230.91700744628906,123.61900329589844)"><path stroke-linecap="round" stroke-linejoin="round" fill-opacity="0" stroke="rgb(177,24,94)" stroke-opacity="1" stroke-width="6" d=" M-0.28200000524520874,-11.770000457763672 C2.802999973297119,-27.489999771118164 24.77400016784668,-30.202999114990234 26.966999053955078,-13.105999946594238 C29.15999984741211,3.990999937057495 4.949999809265137,24.791000366210938 4.949999809265137,24.791000366210938 C4.949999809265137,24.791000366210938 -24.476999282836914,13.366000175476074 -26.969999313354492,-6.061999797821045 C-28.964000701904297,-21.604999542236328 -8.723999977111816,-26.011999130249023 -0.28200000524520874,-11.770000457763672z"/></g></g></g></svg>